<svg xmlns="http://www.w3.org/2000/svg" viewBox="0 0 32 32" aria-hidden="true">
  <path fill="#fff" d="M19.11 17.33c-.27-.13-1.58-.78-1.82-.87-.24-.09-.42-.13-.6.13-.18.27-.69.87-.85 1.05-.16.18-.31.2-.58.07-.27-.13-1.13-.42-2.16-1.33-.8-.71-1.33-1.58-1.49-1.85-.16-.27-.02-.41.12-.54.12-.12.27-.31.4-.47.13-.16.18-.27.27-.45.09-.18.04-.34-.02-.47-.07-.13-.6-1.45-.82-1.98-.21-.51-.43-.44-.6-.45h-.51c-.18 0-.47.07-.71.34-.24.27-.93.91-.93 2.22s.96 2.58 1.09 2.76c.13.18 1.89 2.88 4.58 4.04.64.27 1.13.43 1.52.55.64.2 1.22.17 1.68.1.51-.08 1.58-.64 1.8-1.25.22-.61.22-1.13.16-1.24-.07-.11-.24-.18-.51-.31z"/>
  <path fill="#fff" d="M16.03 5.33c-5.88 0-10.65 4.76-10.65 10.63 0 1.88.49 3.72 1.42 5.35L5.3 26.67l5.5-1.44a10.66 10.66 0 0 0 5.22 1.35h.01c5.87 0 10.64-4.77 10.64-10.64S21.9 5.33 16.03 5.33zm0 19.46h-.01a8.8 8.8 0 0 1-4.49-1.23l-.32-.19-3.26.85.87-3.18-.21-.33a8.83 8.83 0 0 1-1.36-4.74c0-4.88 3.97-8.84 8.85-8.84 2.37 0 4.6.92 6.27 2.59a8.8 8.8 0 0 1 2.59 6.27c0 4.88-3.97 8.84-8.84 8.84z"/>
</svg>